<?xml version="1.0" standalone="no"?>
<!-- Generator: Adobe Fireworks 10, Export SVG Extension by Aaron Beall (http://fireworks.abeall.com) . Version: 0.6.1  -->
<!DOCTYPE svg PUBLIC "-//W3C//DTD SVG 1.1//EN" "http://www.w3.org/Graphics/SVG/1.1/DTD/svg11.dtd">
<svg id="logo%20%281%29-Page%201" viewBox="0 0 1012 496" style="background-color:#000" version="1.1"
	xmlns="http://www.w3.org/2000/svg" xmlns:xlink="http://www.w3.org/1999/xlink" xml:space="preserve"
	x="0px" y="0px" width="1012px" height="496px"
>
	<g id="Background">
		<g>
			<path d="M 55.1181 7.873 L 102.3622 7.873 L 102.3622 219.2143 C 102.3622 247.5079 99.4094 265.2222 93.75 272.6032 C 88.0906 279.7381 80.3396 283.4286 70.497 283.4286 C 64.7146 283.4286 59.4242 281.9524 54.503 279.123 C 49.5817 276.1706 47.2441 272.9722 47.2441 269.2817 C 47.2441 266.5754 48.8435 263.5 52.1654 260.0555 C 54.1339 256.6111 55.1181 252.6746 55.1181 248.4921 C 55.1181 242.8333 52.9035 238.0357 48.7205 234.0992 C 44.4144 230.2857 39.001 228.3175 32.4803 228.3175 C 25.7136 228.3175 19.9311 230.5318 15.1329 234.7143 C 10.2116 238.8968 7.874 244.1865 7.874 250.4603 C 7.874 260.7936 13.6565 270.2659 25.3445 278.754 C 37.0325 286.996 50.935 291.3016 67.0522 291.3016 C 83.5384 291.3016 99.1634 286.381 113.6811 276.6627 C 128.1988 266.6984 137.9183 255.627 142.5935 242.9563 C 147.2687 230.2857 149.6063 212.6944 149.6063 190.1825 L 149.6063 7.873 L 188.9764 7.873 L 188.9764 0 L 55.1181 0 L 55.1181 7.873 L 55.1181 7.873 Z" fill="#ffffff"/>
			<path d="M 191.9291 252.7976 C 196.4813 257.4722 202.0177 259.8095 208.4154 259.8095 C 215.0591 259.8095 220.5955 257.4722 225.2707 252.7976 C 229.9459 248.123 232.2835 242.5873 232.2835 235.9444 C 232.2835 229.5476 229.9459 224.0119 225.2707 219.4603 C 220.5955 214.9087 215.0591 212.5714 208.4154 212.5714 C 202.0177 212.5714 196.4813 214.9087 191.9291 219.5833 C 187.2539 224.2579 185.0394 229.6706 185.0394 235.9444 C 185.0394 242.5873 187.2539 248.123 191.9291 252.7976 L 191.9291 252.7976 Z" fill="#ffffff"/>
			<path d="M 267.7165 251.9365 L 267.7165 259.8095 L 393.7008 259.8095 L 393.7008 251.9365 L 354.3307 251.9365 L 354.3307 125.9683 L 376.8455 125.9683 C 400.7136 125.9683 416.0925 131.504 422.8593 142.4524 C 429.626 153.4008 433.0709 164.4722 433.0709 175.7897 L 433.0709 208.1429 C 432.8248 219.3373 437.2539 230.7778 446.3583 242.3413 C 455.4626 254.0278 471.2106 259.8095 493.6024 259.8095 C 504.4291 259.8095 515.748 258.8254 527.5591 256.8571 L 527.5591 251.9365 L 510.9498 251.9365 C 503.814 251.9365 498.1545 249.5992 494.2175 244.9246 C 490.1575 240.25 488.189 229.6706 488.189 213.0635 C 488.189 184.1548 480.561 163.6111 465.5512 151.4325 C 450.5414 139.377 431.2254 131.1349 407.8494 126.9524 L 407.8494 125.9683 C 439.8376 120.6786 462.4754 112.8056 475.8858 102.3492 C 489.2963 91.8929 496.063 78.2381 496.063 61.3849 C 496.063 47.8532 491.7569 35.9206 483.2677 25.5873 C 474.6555 15.254 464.5669 8.3651 452.8789 5.0437 C 441.0679 1.7222 426.0581 0 407.8494 0 L 267.7165 0 L 267.7165 7.873 L 307.0866 7.873 L 307.0866 251.9365 L 267.7165 251.9365 L 267.7165 251.9365 ZM 394.3159 7.873 C 404.2815 7.873 412.4016 8.7341 418.5532 10.3333 C 424.7047 12.0556 429.9951 16.4841 434.4242 23.619 C 438.7303 30.754 440.9449 42.0714 440.9449 57.5714 C 440.9449 76.5159 438.7303 90.2936 434.4242 98.9048 C 430.1181 107.6389 424.3356 113.0516 417.1998 115.0198 C 410.064 117.1111 399.6063 118.0952 386.0728 118.0952 L 354.3307 118.0952 L 354.3307 7.873 L 394.3159 7.873 L 394.3159 7.873 Z" fill="#ffffff"/>
			<path d="M 576.6486 41.5794 C 580.4626 45.3929 585.1378 47.2381 590.5512 47.2381 C 595.9645 47.2381 600.5167 45.3929 604.4537 41.7024 C 608.2677 38.0119 610.2362 33.2143 610.2362 27.4325 C 610.2362 22.0198 608.2677 17.4683 604.3307 13.6548 C 600.3937 9.8413 595.8416 7.873 590.5512 7.873 C 585.1378 7.873 580.5856 9.8413 576.6486 13.6548 C 572.7116 17.5913 570.8661 22.1429 570.8661 27.4325 C 570.8661 33.0913 572.7116 37.7659 576.6486 41.5794 L 576.6486 41.5794 ZM 574.0649 102.3492 L 547.2441 102.3492 L 547.2441 110.2222 L 570.8661 110.2222 L 570.8661 251.9365 L 547.2441 251.9365 L 547.2441 259.8095 L 633.8583 259.8095 L 633.8583 251.9365 L 610.2362 251.9365 L 610.2362 102.3492 L 574.0649 102.3492 L 574.0649 102.3492 Z" fill="#ffffff"/>
			<path d="M 794.5374 118.0952 C 796.2598 118.0952 798.4744 120.8016 800.9351 125.9683 C 803.3957 131.2579 807.3327 133.8413 812.5 133.8413 C 815.9449 133.8413 819.2667 132.6111 822.2195 129.9048 C 825.1722 127.1984 826.7717 123.631 826.7717 119.0794 C 826.7717 113.9127 825.0492 109.8532 821.6043 106.9008 C 818.1594 103.9484 814.2224 102.3492 809.5472 102.3492 C 797.4902 102.3492 786.6634 108.131 776.8209 119.5714 C 763.6565 108.131 747.4163 102.3492 727.9774 102.3492 C 710.0148 102.3492 694.3898 107.8849 681.2254 118.8333 C 667.938 129.7818 661.4173 143.3135 661.4173 159.3056 C 661.4173 179.2341 671.629 194.119 692.1752 203.9603 L 692.1752 204.6984 C 666.3386 208.0198 653.5433 222.2897 653.5433 247.3849 C 653.5433 266.0833 663.7549 278.1389 684.3012 283.4286 C 671.2598 291.3016 662.7707 297.5754 659.0797 302.373 C 655.3888 306.9246 653.5433 312.8294 653.5433 319.8413 C 653.5433 331.1587 659.8179 341.123 672.3671 349.6111 C 684.9163 357.8532 701.7717 362.1587 723.1791 362.1587 C 750.6152 362.1587 772.1457 355.6389 787.6476 342.7222 C 803.1496 329.6825 811.0236 313.6905 811.0236 294.746 C 811.0236 278.5079 806.4714 265.9603 797.4902 257.2262 C 788.5089 248.4921 776.9439 244.0635 762.6722 244.0635 L 693.8976 244.0635 C 679.3799 244.0635 670.3986 243.0794 666.8307 240.9881 C 663.1398 238.8968 661.4173 235.8214 661.4173 231.7619 C 661.4173 227.2103 664.9852 222.9048 672.2441 218.7222 C 679.3799 214.6627 685.7776 212.5714 691.1909 212.5714 L 704.4783 212.5714 L 724.2864 212.5714 L 734.7441 211.9563 C 744.3406 211.9563 756.8898 207.4048 772.2687 198.1786 C 787.5246 188.9524 795.2756 175.2976 795.2756 157.3373 C 795.2756 146.7579 791.0925 136.0556 782.9724 125.1071 C 787.2786 120.4325 791.0925 118.0952 794.5374 118.0952 L 794.5374 118.0952 ZM 748.7697 117.1111 C 753.4449 121.7857 755.9055 131.873 755.9055 147.373 C 755.9055 172.7143 754.5522 188.5833 751.8455 194.9802 C 749.1388 201.5 741.2648 204.6984 728.2234 204.6984 C 715.3051 204.6984 707.5541 201.623 704.8474 195.2262 C 702.1407 188.8294 700.7874 174.6825 700.7874 152.5397 C 700.7874 137.2857 702.1407 126.4603 705.0935 119.9405 C 708.0463 113.5436 715.5512 110.2222 727.8543 110.2222 C 737.0817 110.2222 744.0945 112.5595 748.7697 117.1111 L 748.7697 117.1111 ZM 718.0118 283.4286 L 745.0787 283.4286 L 768.5778 283.4286 C 777.436 283.4286 785.3101 285.3968 792.4459 289.5794 C 799.5817 293.6389 803.1496 299.4206 803.1496 307.0476 C 803.1496 319.5952 796.0138 330.6667 781.8652 340.1389 C 767.7166 349.4881 749.877 354.2857 728.2234 354.2857 C 694.1437 354.2857 677.1653 342.3532 677.1653 318.4881 C 677.1653 303.2341 683.4399 291.7936 696.2352 284.1667 L 718.0118 283.4286 L 718.0118 283.4286 Z" fill="#ffffff"/>
			<path d="M 979.5768 118.0952 C 981.2992 118.0952 983.5138 120.8016 985.9744 125.9683 C 988.4351 131.2579 992.3721 133.8413 997.5394 133.8413 C 1000.9843 133.8413 1004.3061 132.6111 1007.2589 129.9048 C 1010.2116 127.1984 1011.811 123.631 1011.811 119.0794 C 1011.811 113.9127 1010.0886 109.8532 1006.6437 106.9008 C 1003.1988 103.9484 999.2618 102.3492 994.5866 102.3492 C 982.5295 102.3492 971.7028 108.131 961.8602 119.5714 C 948.6959 108.131 932.4557 102.3492 913.0167 102.3492 C 895.0541 102.3492 879.4291 107.8849 866.2648 118.8333 C 852.9774 129.7818 846.4567 143.3135 846.4567 159.3056 C 846.4567 179.2341 856.6683 194.119 877.2145 203.9603 L 877.2145 204.6984 C 851.3779 208.0198 838.5827 222.2897 838.5827 247.3849 C 838.5827 266.0833 848.7943 278.1389 869.3406 283.4286 C 856.2992 291.3016 847.8101 297.5754 844.1191 302.373 C 840.4282 306.9246 838.5827 312.8294 838.5827 319.8413 C 838.5827 331.1587 844.8573 341.123 857.4065 349.6111 C 869.9557 357.8532 886.811 362.1587 908.2185 362.1587 C 935.6545 362.1587 957.1851 355.6389 972.687 342.7222 C 988.189 329.6825 996.063 313.6905 996.063 294.746 C 996.063 278.5079 991.5108 265.9603 982.5295 257.2262 C 973.5482 248.4921 961.9833 244.0635 947.7116 244.0635 L 878.937 244.0635 C 864.4193 244.0635 855.438 243.0794 851.8701 240.9881 C 848.1791 238.8968 846.4567 235.8214 846.4567 231.7619 C 846.4567 227.2103 850.0246 222.9048 857.2834 218.7222 C 864.4193 214.6627 870.817 212.5714 876.2303 212.5714 L 889.5177 212.5714 L 909.3258 212.5714 L 919.7834 211.9563 C 929.3799 211.9563 941.9291 207.4048 957.308 198.1786 C 972.564 188.9524 980.3149 175.2976 980.3149 157.3373 C 980.3149 146.7579 976.1319 136.0556 968.0118 125.1071 C 972.3179 120.4325 976.1319 118.0952 979.5768 118.0952 L 979.5768 118.0952 ZM 933.8091 117.1111 C 938.4843 121.7857 940.9449 131.873 940.9449 147.373 C 940.9449 172.7143 939.5916 188.5833 936.8848 194.9802 C 934.1782 201.5 926.3041 204.6984 913.2628 204.6984 C 900.3445 204.6984 892.5935 201.623 889.8868 195.2262 C 887.1801 188.8294 885.8268 174.6825 885.8268 152.5397 C 885.8268 137.2857 887.1801 126.4603 890.1329 119.9405 C 893.0856 113.5436 900.5906 110.2222 912.8937 110.2222 C 922.121 110.2222 929.1339 112.5595 933.8091 117.1111 L 933.8091 117.1111 ZM 903.0512 283.4286 L 930.1181 283.4286 L 953.6171 283.4286 C 962.4754 283.4286 970.3494 285.3968 977.4852 289.5794 C 984.621 293.6389 988.189 299.4206 988.189 307.0476 C 988.189 319.5952 981.0532 330.6667 966.9045 340.1389 C 952.7559 349.4881 934.9163 354.2857 913.2628 354.2857 C 879.183 354.2857 862.2047 342.3532 862.2047 318.4881 C 862.2047 303.2341 868.4793 291.7936 881.2746 284.1667 L 903.0512 283.4286 L 903.0512 283.4286 Z" fill="#ffffff"/>
		</g>
		<rect x="15.748" y="330.6667" width="629.9213" height="7.873" fill="#ffffff"/>
		<g>
			<path d="M 73.8524 387.6296 C 72.7872 389.794 71.2275 392.2893 69.1732 395.1412 C 62.1735 389.0555 54.1085 386 44.9531 386 C 33.0713 386 22.6097 391.3982 13.5683 402.1945 C 4.5143 412.9908 0 426.1424 0 441.662 C 0 456.8762 4.5904 469.735 13.7712 480.2384 C 22.9521 490.7546 33.0966 496 44.2303 496 C 52.9926 496 61.5141 492.6007 69.8073 485.7766 C 72.3688 488.1192 74.2582 490.9838 75.4755 494.3704 L 79.5333 494.3704 L 81.1565 461.7778 L 77.0987 461.7778 C 74.0299 472.3322 69.7058 479.9965 64.1263 484.7708 C 58.5468 489.5451 52.5995 491.9259 46.2592 491.9259 C 41.3898 491.9259 36.9262 490.6146 32.8937 487.9792 C 28.8486 485.3438 26.0081 480.9768 24.3723 474.8658 C 22.7238 468.7546 21.9122 457.2199 21.9122 440.2616 C 21.9122 419.6493 23.789 406.1285 27.5552 399.7118 C 31.3086 393.2951 37.2939 390.0741 45.4984 390.0741 C 60.7406 390.0741 70.2004 399.8518 73.8524 419.4074 L 77.9102 419.4074 L 77.9102 387.6296 L 73.8524 387.6296 L 73.8524 387.6296 Z" fill="#ffffff"/>
			<path d="M 94.7375 486.4132 C 101.0779 492.8044 108.6102 496 117.3218 496 C 126.1856 496 133.8701 492.728 140.3754 486.1713 C 146.8806 479.6273 150.1395 471.632 150.1395 462.2107 C 150.1395 453.0058 146.9947 445.3414 140.7304 439.2049 C 134.4661 433.0683 126.8197 430 117.791 430 C 108.5595 430 100.8116 433.2083 94.5727 439.5995 C 88.3338 445.9908 85.2143 453.7442 85.2143 462.8472 C 85.2143 472.1667 88.3845 480.022 94.7375 486.4132 L 94.7375 486.4132 ZM 131.3087 481.8044 C 130.6492 484.9873 129.1149 487.4699 126.7056 489.2523 C 124.2962 491.0347 121.2655 491.9259 117.6389 491.9259 C 114.0502 491.9259 111.0703 491.0475 108.7116 489.2905 C 106.353 487.5336 104.8187 485.1146 104.1212 482.0081 C 103.4111 478.9016 103.0687 472.5741 103.0687 463 C 103.0687 453.4896 103.3477 447.213 103.9183 444.1574 C 104.489 441.1018 105.9853 438.6574 108.4073 436.8241 C 110.8166 434.9908 113.898 434.0741 117.6389 434.0741 C 121.5826 434.0741 124.6893 434.9653 126.9465 436.7477 C 129.2037 438.5301 130.6492 440.9491 131.3087 444.0046 C 131.9554 447.0602 132.2851 453.3368 132.2851 462.8472 C 132.2851 472.3067 131.9554 478.6215 131.3087 481.8044 L 131.3087 481.8044 Z" fill="#ffffff"/>
			<path d="M 151.7626 490.2963 L 151.7626 494.3704 L 189.0946 494.3704 L 189.0946 490.2963 L 178.5443 490.2963 L 178.5443 462.9363 C 178.5443 454.1262 180.5605 447.1238 184.6056 441.9039 C 188.6508 436.684 193.2031 434.0741 198.2754 434.0741 C 201.4583 434.0741 203.4238 435.2581 204.1846 437.6007 C 204.9455 439.9433 205.3259 444.1829 205.3259 450.3067 L 205.3259 490.2963 L 194.7756 490.2963 L 194.7756 494.3704 L 232.9191 494.3704 L 232.9191 490.2963 L 220.7456 490.2963 L 220.7456 456.978 C 220.7456 450.2049 220.2003 445.2141 219.1352 441.9803 C 218.0573 438.7592 216.0411 435.9583 213.0865 433.5775 C 210.1192 431.1967 206.3403 430 201.7246 430 C 191.8717 430 184.2506 435.169 178.8613 445.507 L 178.5443 445.507 L 178.5443 430 C 172.6985 431.0949 166.1933 431.6296 159.016 431.6296 L 151.7626 431.6296 L 151.7626 435.7037 L 163.1245 435.7037 L 163.1245 490.2963 L 151.7626 490.2963 L 151.7626 490.2963 Z" fill="#ffffff"/>
			<path d="M 269.4395 431.6296 C 268.3743 433.7049 267.3472 435.2963 266.3454 436.4039 C 262.4144 432.1389 257.545 430 251.7499 430 C 246.2592 430 241.6181 431.8333 237.8138 435.4873 C 234.0096 439.1539 232.1075 443.6863 232.1075 449.11 C 231.8793 460.11 239.1834 466.7685 254.0198 469.0857 C 262.8202 470.2442 268.1207 471.5428 269.9467 472.9688 C 271.7728 474.4074 272.6858 476.5336 272.6858 479.3345 C 272.6858 482.7211 271.0119 485.662 267.6896 488.1701 C 264.3672 490.6783 260.6645 491.9259 256.6067 491.9259 C 245.8914 491.9259 238.2704 484.5926 233.7307 469.9259 L 231.296 469.9259 L 231.296 494.3704 L 233.7307 494.3704 L 239.3228 489.5961 C 244.9531 493.8738 250.7862 496 256.8095 496 C 262.9216 496 268.0446 493.9502 272.1786 489.8507 C 276.2998 485.7512 278.3667 480.6076 278.3667 474.4456 C 278.3667 462.0833 270.4666 454.9283 254.6792 452.9676 C 247.4892 452.0255 243.0129 450.9051 241.2503 449.6065 C 239.475 448.3079 238.6001 446.5255 238.6001 444.272 C 238.6001 441.6238 239.9062 439.2558 242.5311 437.1805 C 245.1433 435.118 248.4149 434.0741 252.3459 434.0741 C 261.4 434.0741 267.0936 439.243 269.4395 449.5555 L 273.4973 449.5555 L 273.4973 431.6296 L 269.4395 431.6296 L 269.4395 431.6296 Z" fill="#ffffff"/>
			<path d="M 292.1633 415.0405 L 292.1633 431.6296 L 278.3667 431.6296 L 278.3667 435.7037 L 292.1633 435.7037 L 292.1633 474.6875 C 292.1633 479.4745 292.4423 483.2685 293.0002 486.0695 C 293.5582 488.8704 295.0545 491.2257 297.4892 493.1354 C 299.9239 495.0451 303.7408 496 308.9399 496 C 321.2909 496 328.6837 490.8438 331.1184 480.5185 L 327.0606 480.5185 C 325.8686 484.4143 324.1314 487.2789 321.8362 489.1377 C 319.541 490.9965 317.157 491.9259 314.6969 491.9259 C 311.4507 491.9259 309.4471 490.831 308.699 488.6412 C 307.9508 486.4514 307.5831 482.3773 307.5831 476.3935 L 307.5831 435.7037 L 326.2491 435.7037 L 326.2491 431.6296 L 307.5831 431.6296 L 307.5831 413.7037 C 302.5108 414.5949 297.3751 415.0405 292.1633 415.0405 L 292.1633 415.0405 Z" fill="#ffffff"/>
			<path d="M 327.8722 490.2963 L 327.8722 494.3704 L 369.262 494.3704 L 369.262 490.2963 L 356.2769 490.2963 L 356.2769 465.088 C 356.2769 455.081 357.507 447.6458 359.9924 442.7824 C 362.4651 437.9317 364.5067 435.5 366.1045 435.5 C 367.119 435.5 367.6389 436.1111 367.6389 437.3333 L 367.6389 441.14 C 367.6389 446.2072 369.9341 448.7408 374.5498 448.7408 C 377.0606 448.7408 379.1022 447.9514 380.6873 446.36 C 382.2597 444.7813 383.0586 442.6933 383.0586 440.0961 C 383.0586 437.2951 382.1075 434.9143 380.2181 432.9537 C 378.316 430.993 375.8179 430 372.6985 430 C 365.5846 430 360.2206 435.0162 356.594 445.0359 L 356.2769 445.0359 L 356.2769 430 C 352.7644 431.0949 347.6541 431.6296 340.9586 431.6296 L 327.8722 431.6296 L 327.8722 435.7037 L 340.8572 435.7037 L 340.8572 490.2963 L 327.8722 490.2963 L 327.8722 490.2963 Z" fill="#ffffff"/>
			<path d="M 422.8253 431.6296 L 422.8253 435.7037 L 435.8103 435.7037 L 435.8103 460.1609 C 435.8103 470.8935 433.8194 478.8762 429.8504 484.0961 C 425.8686 489.316 421.5445 491.9259 416.8653 491.9259 C 413.7078 491.9259 411.7423 490.6528 410.9815 488.0938 C 410.2206 485.5475 409.8402 480.9259 409.8402 474.2546 L 409.8402 431.6296 L 383.0586 431.6296 L 383.0586 435.7037 L 394.4205 435.7037 L 394.4205 471.3773 C 394.4205 481.4988 396.1577 488.132 399.6576 491.2766 C 403.1575 494.4213 407.7733 496 413.5176 496 C 423.51 496 430.8395 491.0602 435.506 481.1805 L 435.8103 481.1805 L 435.8103 495.3252 C 437.9406 494.6887 443.0763 494.3704 451.2173 494.3704 L 461.7804 494.3704 L 461.7804 490.2963 L 451.23 490.2963 L 451.23 431.6296 L 422.8253 431.6296 L 422.8253 431.6296 Z" fill="#ffffff"/>
			<path d="M 496.3099 491.9259 C 491.4659 491.9259 487.9914 490.6528 485.8864 488.0938 C 483.7814 485.5347 482.4753 482.0208 481.9934 477.5393 C 481.4989 473.0706 481.2579 466.1574 481.2579 456.7998 C 481.2579 447.4421 482.5894 441.3183 485.2523 438.4155 C 487.9153 435.5255 491.9985 434.0741 497.5019 434.0741 C 500.6214 434.0741 503.1575 434.6215 505.1103 435.7037 C 507.0631 436.7859 508.0396 438.0336 508.0396 439.4467 C 508.0396 440.0324 507.3548 441.1146 506.0107 442.6933 C 504.6538 444.272 503.9818 445.8889 503.9818 447.5185 C 503.9818 449.8357 504.7172 451.7072 506.1882 453.1331 C 507.6591 454.559 509.4978 455.2592 511.7296 455.2592 C 513.9995 455.2592 515.8509 454.4063 517.2711 452.6748 C 518.6913 450.956 519.4015 449.0208 519.4015 446.8692 C 519.4015 442.566 517.2838 438.6829 513.0485 435.2072 C 508.8131 431.7442 503.3224 430 496.6016 430 C 487.1671 430 479.2797 433.3484 472.9267 440.0324 C 466.5737 446.7164 463.4035 454.4826 463.4035 463.3183 C 463.4035 471.8993 466.5103 479.5 472.7238 486.0949 C 478.9373 492.7025 486.5458 496 495.5237 496 C 502.1177 496 507.7479 493.9884 512.4271 489.9525 C 517.0936 485.9294 520.2384 480.0602 521.8362 472.3704 L 517.7783 472.3704 C 513.6571 485.4074 506.5052 491.9259 496.3099 491.9259 L 496.3099 491.9259 Z" fill="#ffffff"/>
			<path d="M 532.3865 415.0405 L 532.3865 431.6296 L 518.5899 431.6296 L 518.5899 435.7037 L 532.3865 435.7037 L 532.3865 474.6875 C 532.3865 479.4745 532.6655 483.2685 533.2234 486.0695 C 533.7814 488.8704 535.2777 491.2257 537.7124 493.1354 C 540.1471 495.0451 543.964 496 549.1631 496 C 561.5141 496 568.9069 490.8438 571.3416 480.5185 L 567.2838 480.5185 C 566.0918 484.4143 564.3546 487.2789 562.0593 489.1377 C 559.7642 490.9965 557.3802 491.9259 554.9201 491.9259 C 551.6738 491.9259 549.6703 490.831 548.9221 488.6412 C 548.174 486.4514 547.8062 482.3773 547.8062 476.3935 L 547.8062 435.7037 L 566.4722 435.7037 L 566.4722 431.6296 L 547.8062 431.6296 L 547.8062 413.7037 C 542.7339 414.5949 537.5983 415.0405 532.3865 415.0405 L 532.3865 415.0405 Z" fill="#ffffff"/>
			<path d="M 581.9554 406.3322 C 583.6292 407.9873 585.6328 408.8148 587.9787 408.8148 C 590.312 408.8148 592.3155 408 593.9893 406.3704 C 595.6632 404.7408 596.5001 402.691 596.5001 400.2211 C 596.5001 397.853 595.6505 395.8414 593.9513 394.1863 C 592.2521 392.5313 590.2612 391.7037 587.9787 391.7037 C 585.6835 391.7037 583.6926 392.544 581.9934 394.2245 C 580.2942 395.9051 579.4573 397.9039 579.4573 400.2211 C 579.4573 402.64 580.2815 404.6771 581.9554 406.3322 L 581.9554 406.3322 ZM 580.2942 431.6296 L 568.9069 431.6296 L 568.9069 435.7037 L 580.2689 435.7037 L 580.2689 490.2963 L 568.9069 490.2963 L 568.9069 494.3704 L 607.0505 494.3704 L 607.0505 490.2963 L 595.6885 490.2963 L 595.6885 430 C 590.8699 431.0949 585.7469 431.6296 580.2942 431.6296 L 580.2942 431.6296 Z" fill="#ffffff"/>
			<path d="M 614.9506 486.4132 C 621.2909 492.8044 628.8232 496 637.5349 496 C 646.3987 496 654.0832 492.728 660.5884 486.1713 C 667.0936 479.6273 670.3525 471.632 670.3525 462.2107 C 670.3525 453.0058 667.2077 445.3414 660.9434 439.2049 C 654.6792 433.0683 647.0327 430 638.004 430 C 628.7725 430 621.0246 433.2083 614.7857 439.5995 C 608.5468 445.9908 605.4274 453.7442 605.4274 462.8472 C 605.4274 472.1667 608.5975 480.022 614.9506 486.4132 L 614.9506 486.4132 ZM 651.5217 481.8044 C 650.8623 484.9873 649.3279 487.4699 646.9186 489.2523 C 644.5093 491.0347 641.4786 491.9259 637.8519 491.9259 C 634.2632 491.9259 631.2833 491.0475 628.9247 489.2905 C 626.566 487.5336 625.0317 485.1146 624.3343 482.0081 C 623.6241 478.9016 623.2817 472.5741 623.2817 463 C 623.2817 453.4896 623.5607 447.213 624.1313 444.1574 C 624.702 441.1018 626.1983 438.6574 628.6204 436.8241 C 631.0297 434.9908 634.1111 434.0741 637.8519 434.0741 C 641.7956 434.0741 644.9023 434.9653 647.1595 436.7477 C 649.4167 438.5301 650.8623 440.9491 651.5217 444.0046 C 652.1684 447.0602 652.4981 453.3368 652.4981 462.8472 C 652.4981 472.3067 652.1684 478.6215 651.5217 481.8044 L 651.5217 481.8044 Z" fill="#ffffff"/>
			<path d="M 671.9756 490.2963 L 671.9756 494.3704 L 709.3076 494.3704 L 709.3076 490.2963 L 698.7573 490.2963 L 698.7573 462.9363 C 698.7573 454.1262 700.7735 447.1238 704.8187 441.9039 C 708.8638 436.684 713.4162 434.0741 718.4885 434.0741 C 721.6713 434.0741 723.6368 435.2581 724.3976 437.6007 C 725.1585 439.9433 725.5389 444.1829 725.5389 450.3067 L 725.5389 490.2963 L 714.9886 490.2963 L 714.9886 494.3704 L 753.1321 494.3704 L 753.1321 490.2963 L 740.9587 490.2963 L 740.9587 456.978 C 740.9587 450.2049 740.4134 445.2141 739.3482 441.9803 C 738.2703 438.7592 736.2542 435.9583 733.2995 433.5775 C 730.3322 431.1967 726.5534 430 721.9376 430 C 712.0847 430 704.4636 435.169 699.0743 445.507 L 698.7573 445.507 L 698.7573 430 C 692.9115 431.0949 686.4063 431.6296 679.229 431.6296 L 671.9756 431.6296 L 671.9756 435.7037 L 683.3376 435.7037 L 683.3376 490.2963 L 671.9756 490.2963 L 671.9756 490.2963 Z" fill="#ffffff"/>
			<path d="M 834.2886 391.7037 L 834.2886 387.6296 L 780.7253 387.6296 L 780.7253 391.7037 L 797.7682 391.7037 L 797.7682 490.2963 L 780.7253 490.2963 L 780.7253 494.3704 L 869.9974 494.3704 L 873.2437 459.3333 L 869.1859 459.3333 C 867.6008 465.9028 866.1172 471.0208 864.7223 474.7002 C 863.3274 478.3796 861.3492 481.5498 858.8004 484.2234 C 856.2389 486.897 853.652 488.5775 851.0145 489.265 C 848.3769 489.9525 844.7756 490.2963 840.1978 490.2963 L 816.4342 490.2963 L 816.4342 391.7037 L 834.2886 391.7037 L 834.2886 391.7037 Z" fill="#ffffff"/>
			<path d="M 885.4172 415.0405 L 885.4172 431.6296 L 871.6206 431.6296 L 871.6206 435.7037 L 885.4172 435.7037 L 885.4172 474.6875 C 885.4172 479.4745 885.6962 483.2685 886.2542 486.0695 C 886.8121 488.8704 888.3084 491.2257 890.7431 493.1354 C 893.1778 495.0451 896.9947 496 902.1938 496 C 914.5447 496 921.9376 490.8438 924.3723 480.5185 L 920.3145 480.5185 C 919.1225 484.4143 917.3853 487.2789 915.09 489.1377 C 912.7948 490.9965 910.4108 491.9259 907.9508 491.9259 C 904.7045 491.9259 902.701 490.831 901.9528 488.6412 C 901.2047 486.4514 900.8369 482.3773 900.8369 476.3935 L 900.8369 435.7037 L 919.5029 435.7037 L 919.5029 431.6296 L 900.8369 431.6296 L 900.8369 413.7037 C 895.7646 414.5949 890.629 415.0405 885.4172 415.0405 L 885.4172 415.0405 Z" fill="#ffffff"/>
			<path d="M 973.5354 387.6296 L 959.2696 387.6296 L 959.2696 391.7037 L 973.8777 391.7037 L 973.8777 441.713 L 973.5607 441.713 C 969.6551 433.9086 963.5684 430 955.3005 430 C 947.1849 430 940.1344 433.3738 934.1491 440.1088 C 928.1638 446.8438 925.1839 454.6863 925.1839 463.6366 C 925.1839 472.0139 928.0117 479.5 933.6799 486.0949 C 939.3355 492.7025 945.8915 496 953.3223 496 C 962.5919 496 969.3381 491.4294 973.5607 482.2627 L 973.8777 482.2627 L 973.8777 495.3252 C 979.9138 494.6887 985.6581 494.3704 991.1235 494.3704 L 1000 494.3704 L 1000 490.2963 L 989.2975 490.2963 L 989.2975 386 C 984.0731 387.0949 978.8105 387.6296 973.5354 387.6296 L 973.5354 387.6296 ZM 969.0211 440.4016 C 972.2546 444.6285 973.8777 450.765 973.8777 458.8113 C 973.8777 467.2905 973.3578 473.4271 972.3307 477.2465 C 971.3036 481.066 969.1478 484.478 965.8635 487.4572 C 962.5666 490.4363 958.7624 491.9259 954.4509 491.9259 C 950.4438 491.9259 947.5399 490.4745 945.7393 487.5463 C 943.9386 484.618 943.0383 477.5521 943.0383 466.3229 C 943.0383 453.3368 943.7357 444.7049 945.1559 440.4525 C 946.5635 436.2002 950.0761 434.0741 955.681 434.0741 C 961.3365 434.0741 965.7748 436.1875 969.0211 440.4016 L 969.0211 440.4016 Z" fill="#ffffff"/>
		</g>
	</g>
	<g id="Layer%201">
	</g>
</svg>